<svg width="750" height="170" viewBox="60 22 750 170" fill="none" xmlns="http://www.w3.org/2000/svg">
  <defs>
    <linearGradient id="cardFill" x1="156" y1="112" x2="440" y2="550" gradientUnits="userSpaceOnUse">
      <stop stop-color="#112F59"/>
      <stop offset="1" stop-color="#0A1932"/>
    </linearGradient>
  </defs>
  <g transform="translate(10 -8) scale(0.34)">
    <rect x="148" y="114" width="300" height="436" rx="34" fill="url(#cardFill)"/>
    <text x="182" y="186" font-size="32" font-family="'SFMono-Regular', Consolas, 'Liberation Mono', monospace" fill="#EEF3F6" font-weight="800" letter-spacing="7">1010</text>
    <text x="414" y="502" font-size="32" font-family="'SFMono-Regular', Consolas, 'Liberation Mono', monospace" fill="#EEF3F6" font-weight="800" letter-spacing="7" text-anchor="end">0101</text>
    <path d="M298 246C286 264 269 281 252 297C236 312 226 330 226 350C226 376 246 394 269 394C282 394 292 389 298 379C304 389 314 394 327 394C350 394 370 376 370 350C370 330 360 312 344 297C327 281 310 264 298 246Z" fill="#F2F5F7"/>
    <path d="M298 390C293 405 289 418 284 438H312C307 418 303 405 298 390Z" fill="#F2F5F7"/>
    <path d="M190 206H238" stroke="#B2C0CF" stroke-width="3" stroke-linecap="round" opacity="0.9"/>
    <path d="M358 468H406" stroke="#B2C0CF" stroke-width="3" stroke-linecap="round" opacity="0.9"/>
  </g>

  <g fill="#0D1A31">
    <text x="176" y="95" font-size="74" font-family="Inter, Arial, Helvetica, sans-serif" font-weight="800" letter-spacing="0.2">Secret Poker</text>
    <text x="179" y="136" font-size="20" font-family="Inter, Arial, Helvetica, sans-serif" font-weight="600" letter-spacing="5" fill="#526B8A">SECURE PLAY, REFINED IDENTITY</text>
  </g>

  <path d="M179 156H688" stroke="#9FB0C1" stroke-width="2.5" stroke-linecap="round"/>
</svg>
